<?xml version="1.0" encoding="UTF-8" standalone="no"?>
<!-- Created with Inkscape (http://www.inkscape.org/) -->
<svg xmlns:dc="http://purl.org/dc/elements/1.1/" xmlns:cc="http://creativecommons.org/ns#" xmlns:rdf="http://www.w3.org/1999/02/22-rdf-syntax-ns#" xmlns:svg="http://www.w3.org/2000/svg" xmlns="http://www.w3.org/2000/svg" xmlns:sodipodi="http://sodipodi.sourceforge.net/DTD/sodipodi-0.dtd" xmlns:inkscape="http://www.inkscape.org/namespaces/inkscape" version="1.0" width="100" height="100" id="svg2211" sodipodi:version="0.32" inkscape:version="0.46" sodipodi:docname="Village Symbol Kumogakure.svg" inkscape:output_extension="org.inkscape.output.svg.inkscape">
  <metadata id="metadata9">
    <rdf:RDF>
      <cc:Work rdf:about="">
        <dc:format>image/svg+xml</dc:format>
        <dc:type rdf:resource="http://purl.org/dc/dcmitype/StillImage"/>
      </cc:Work>
    </rdf:RDF>
  </metadata>
  <sodipodi:namedview inkscape:window-height="930" inkscape:window-width="1280" inkscape:pageshadow="2" inkscape:pageopacity="0.0" guidetolerance="10.0" gridtolerance="10.0" objecttolerance="10.0" borderopacity="1.0" bordercolor="#666666" pagecolor="#ffffff" id="base" showgrid="false" inkscape:zoom="2.8284271" inkscape:cx="-13.880586" inkscape:cy="40.674421" inkscape:window-x="-4" inkscape:window-y="-4" inkscape:current-layer="svg2211" inkscape:object-paths="false" inkscape:object-nodes="true">
    <inkscape:grid type="xygrid" id="grid3154" visible="true" enabled="true"/>
  </sodipodi:namedview>
  <defs id="defs2214">
    <inkscape:perspective sodipodi:type="inkscape:persp3d" inkscape:vp_x="0 : 50 : 1" inkscape:vp_y="6.1230318e-14 : 1000 : 0" inkscape:vp_z="100 : 50 : 1" inkscape:persp3d-origin="50 : 33.333333 : 1" id="perspective11"/>
    <inkscape:perspective id="perspective3204" inkscape:persp3d-origin="50 : 33.333333 : 1" inkscape:vp_z="100 : 50 : 1" inkscape:vp_y="0 : 1000 : 0" inkscape:vp_x="0 : 50 : 1" sodipodi:type="inkscape:persp3d"/>
    <inkscape:perspective id="perspective2390" inkscape:persp3d-origin="372.04724 : 350.78739 : 1" inkscape:vp_z="744.09448 : 526.18109 : 1" inkscape:vp_y="0 : 1000 : 0" inkscape:vp_x="0 : 526.18109 : 1" sodipodi:type="inkscape:persp3d"/>
  </defs>
  <g id="g3213" style="stroke: rgb(0, 0, 0); stroke-width: 3.67094; stroke-miterlimit: 4; stroke-dasharray: none; stroke-opacity: 1;" transform="matrix(1.48025, 0, 0, 1.63567, 272.091, -65.1568)">
    <path transform="matrix(0.872599, 0, 0, 0.783411, -20.2359, 13.0921)" d="M -160.875,61.3125 A 12.1875,5.4375 0 1 1 -185.25,61.3125 A 12.1875,5.4375 0 1 1 -160.875,61.3125 z" sodipodi:ry="5.4375" sodipodi:rx="12.1875" sodipodi:cy="61.3125" sodipodi:cx="-173.0625" id="path2396" style="overflow: visible; marker: none; opacity: 1; fill: none; fill-opacity: 1; fill-rule: nonzero; stroke: rgb(0, 0, 0); stroke-width: 4.43992; stroke-linecap: round; stroke-linejoin: round; stroke-miterlimit: 4; stroke-dasharray: none; stroke-dashoffset: 0pt; stroke-opacity: 1; visibility: visible; display: inline;" sodipodi:type="arc"/>
    <path sodipodi:nodetypes="ccccscsccsccccccccscsccc" d="M -118.18751,62.5 C -118.18751,65.503695 -120.9333,67.941478 -124.31649,67.941478 L -138.77965,67.96717 C -138.77965,67.96717 -138.77965,67.96717 -138.77965,67.96717 C -140.02339,67.96717 -141.03281,69.157877 -141.03281,70.624998 C -141.03281,72.09212 -140.02339,73.282827 -138.7425,73.28116 C -135.32216,73.279493 -133.06251,75.496304 -133.06251,78.5 C -133.06251,81.503695 -135.8083,83.941478 -139.19149,83.941478 L -164.06251,83.941478 C -167.4457,83.941478 -170.19149,81.503695 -170.19149,78.5 C -170.19149,75.496304 -167.4457,73.058522 -164.06251,73.058522 M -118.18751,62.5 C -118.18751,59.496304 -120.9333,57.058522 -124.31649,57.058522 M -148.81251,57.058522 C -148.81251,57.058522 -148.81251,57.058522 -148.81251,57.058522 M -164.06251,73.058522 C -164.06251,73.058522 -164.06251,73.058522 -164.06251,73.058522 C -164.06251,73.058522 -150.52655,73.282827 -149.28281,73.282827 C -148.03907,73.282827 -147.02965,72.09212 -147.02965,70.624998 C -147.02965,69.157877 -148.03907,67.96717 -149.33492,67.954324 C -152.77022,67.941478 -154.94149,65.503695 -154.94149,62.5 C -154.94149,59.496304 -152.1957,57.058522 -148.81251,57.058522 L -124.31649,57.058522 C -124.31649,57.058522 -124.31649,57.058522 -124.31649,57.058522" style="overflow: visible; marker: none; fill: none; fill-opacity: 1; fill-rule: nonzero; stroke: rgb(0, 0, 0); stroke-width: 3.67094; stroke-linecap: round; stroke-linejoin: round; stroke-miterlimit: 4; stroke-dasharray: none; stroke-dashoffset: 0pt; stroke-opacity: 1; visibility: visible; display: inline;" id="path3188"/>
  </g>
</svg>